# xmcd
#
# Track frame offsets: 
#        150
#        18657
#        33942
#        54945
#        71745
#        88842
#        105207
#        127412
#        142482
#        161615
#        184330
#        199047
#        212297
#        234575
#        254985
#        275685
#
# Disc length: 4007 seconds
#
# Revision: 10
# Processed by: cddbd v1.5.2PL0 Copyright (c) Steve Scherf et al.
# Submitted via: ExactAudioCopyFreeDBPlugin 1.0
#
DISCID=f80fa510
DTITLE=Various Artist - Genuine Houserockin' Music II
DYEAR=1987
DGENRE=Blues
TTITLE0=Albert Collins - I Ain't Drunk
TTITLE1=Big Twist and The Mellow Fellows - The Sweet Sound Of Rhythm And
TTITLE1=Blues
TTITLE2=Koko Taylor - I'd Rather Go Blind 
TTITLE3=Lil' Ed and The Blues Imperials - Pride And Joy 
TTITLE4=Little Charlie and The Nightcats - T.V. Crazy
TTITLE5=Donald Kinsey and The Kinsey Report - Corner Of The Blanket
TTITLE6=Johnny Winter - Mojo Boogie
TTITLE7=Lonnie Brooks - Boomerang
TTITLE8=Lonnie Mack - Tough On Me, Tough On You
TTITLE9=James Cotton and His Big Band - Part Time Love
TTITLE10=Roy Buchanan with Delbert McClinton - The Chokin' Kind
TTITLE11=Clarence 'Gatemouth' Brown - Pressure Cooker
TTITLE12=Professor Longhair - It's My Fault, Darling
TTITLE13=Buddy Guy - She's Out There Somewhere
TTITLE14=Professor's Blues Review with Gloria Hardiman - Meet Me With 
TTITLE14=Your Black Drawers On 
TTITLE15=Robert Cray and Albert Collins - The Dream
EXTD=
EXTT0=
EXTT1=
EXTT2=
EXTT3=
EXTT4=
EXTT5=
EXTT6=
EXTT7=
EXTT8=
EXTT9=
EXTT10=
EXTT11=
EXTT12=
EXTT13=
EXTT14=
EXTT15=
PLAYORDER=
